<?xml version="1.0" standalone="no"?><!DOCTYPE svg PUBLIC "-//W3C//DTD SVG 1.1//EN" "http://www.w3.org/Graphics/SVG/1.1/DTD/svg11.dtd"><svg t="1614926209505" class="icon" viewBox="0 0 1024 1024" version="1.1" xmlns="http://www.w3.org/2000/svg" p-id="3211" xmlns:xlink="http://www.w3.org/1999/xlink" width="200" height="200"><defs><style type="text/css"></style></defs><path d="M809.8816 923.904H220.5184c-73.4208 0-133.12-59.6992-133.12-133.12V218.624c0-73.4208 59.6992-133.12 133.12-133.12h589.3632c73.4208 0 133.12 59.6992 133.12 133.12v572.16c0 73.3696-59.7504 133.12-133.12 133.12zM220.5184 146.944c-39.5264 0-71.68 32.1536-71.68 71.68v572.16c0 39.5264 32.1536 71.68 71.68 71.68h589.3632c39.5264 0 71.68-32.1536 71.68-71.68V218.624c0-39.5264-32.1536-71.68-71.68-71.68H220.5184z" fill="#303135" p-id="3212"></path><path d="M246.8352 667.8528c-3.7888 0-7.68-0.7168-11.4176-2.2016a30.65344 30.65344 0 0 1-17.0496-39.936l113.7152-283.3408a30.66368 30.66368 0 0 1 28.3136-19.2512h0.2048c12.3904 0 23.6032 7.4752 28.3648 18.944l117.6576 283.3408a30.70976 30.70976 0 1 1-56.7296 23.552L361.0624 435.0464l-85.7088 213.504a30.75584 30.75584 0 0 1-28.5184 19.3024z" fill="#FF623E" p-id="3213"></path><path d="M429.2096 581.5808H293.888c-16.9472 0-30.72-13.7728-30.72-30.72s13.7728-30.72 30.72-30.72h135.3216c16.9472 0 30.72 13.7728 30.72 30.72s-13.7728 30.72-30.72 30.72zM592.3328 673.024c-1.7408 0-3.5328 0-5.3248-0.0512l-3.4304-0.0512c-16.9472 0-30.72-13.7728-30.72-30.72V345.1904c0-15.8208 11.9808-29.0304 27.6992-30.5664 4.7104-0.4608 115.6608-10.5472 183.3984 50.8416 33.4336 30.3104 50.3296 71.6288 50.3296 122.88 0 53.0432-16.2304 95.9488-48.2816 127.6416-38.2976 37.8368-96.7168 57.0368-173.6704 57.0368z m21.9648-297.6256v235.5712c48.9984-2.9184 85.4528-15.872 108.544-38.7072 20.224-19.968 30.0544-47.4112 30.0544-83.9168 0-33.536-9.8304-58.8288-30.0544-77.2096-30.72-28.0064-78.4896-34.6112-108.544-35.7376z" fill="#FF623E" p-id="3214"></path></svg>